<svg xmlns="http://www.w3.org/2000/svg" width="920" height="500" viewBox="0 0 920 500">
<rect width="100%" height="100%" fill="#ffffff"/>
<text x="90" y="34" font-family="Arial" font-size="24" font-weight="700" fill="#16243a">Base-case forecast</text>
<text x="18" y="250.0" transform="rotate(-90 18 250.0)" font-family="Arial" font-size="13" fill="#536273">RMB million</text>
<line x1="90" x2="885" y1="430.0" y2="430.0" stroke="#e6ebf1"/>
<text x="80" y="434.0" text-anchor="end" font-family="Arial" font-size="12" fill="#536273">-31k</text>
<line x1="90" x2="885" y1="357.0" y2="357.0" stroke="#e6ebf1"/>
<text x="80" y="361.0" text-anchor="end" font-family="Arial" font-size="12" fill="#536273">123k</text>
<line x1="90" x2="885" y1="284.0" y2="284.0" stroke="#e6ebf1"/>
<text x="80" y="288.0" text-anchor="end" font-family="Arial" font-size="12" fill="#536273">277k</text>
<line x1="90" x2="885" y1="211.0" y2="211.0" stroke="#e6ebf1"/>
<text x="80" y="215.0" text-anchor="end" font-family="Arial" font-size="12" fill="#536273">431k</text>
<line x1="90" x2="885" y1="138.0" y2="138.0" stroke="#e6ebf1"/>
<text x="80" y="142.0" text-anchor="end" font-family="Arial" font-size="12" fill="#536273">585k</text>
<line x1="90" x2="885" y1="65.0" y2="65.0" stroke="#e6ebf1"/>
<text x="80" y="69.0" text-anchor="end" font-family="Arial" font-size="12" fill="#536273">739k</text>
<text x="90.0" y="458" text-anchor="middle" font-family="Arial" font-size="13" fill="#334155">2026E</text>
<text x="288.8" y="458" text-anchor="middle" font-family="Arial" font-size="13" fill="#334155">2027E</text>
<text x="487.5" y="458" text-anchor="middle" font-family="Arial" font-size="13" fill="#334155">2028E</text>
<text x="686.2" y="458" text-anchor="middle" font-family="Arial" font-size="13" fill="#334155">2029E</text>
<text x="885.0" y="458" text-anchor="middle" font-family="Arial" font-size="13" fill="#334155">2030E</text>
<polyline points="90.0,184.8 288.8,168.2 487.5,148.5 686.2,125.9 885.0,100.3" fill="none" stroke="#2563a6" stroke-width="3"/>
<circle cx="90.0" cy="184.8" r="4" fill="#2563a6"/>
<circle cx="288.8" cy="168.2" r="4" fill="#2563a6"/>
<circle cx="487.5" cy="148.5" r="4" fill="#2563a6"/>
<circle cx="686.2" cy="125.9" r="4" fill="#2563a6"/>
<circle cx="885.0" cy="100.3" r="4" fill="#2563a6"/>
<polyline points="90.0,394.7 288.8,391.4 487.5,389.6 686.2,387.5 885.0,385.1" fill="none" stroke="#b96c24" stroke-width="3"/>
<circle cx="90.0" cy="394.7" r="4" fill="#b96c24"/>
<circle cx="288.8" cy="391.4" r="4" fill="#b96c24"/>
<circle cx="487.5" cy="389.6" r="4" fill="#b96c24"/>
<circle cx="686.2" cy="387.5" r="4" fill="#b96c24"/>
<circle cx="885.0" cy="385.1" r="4" fill="#b96c24"/>
<line x1="90" x2="114" y1="482" y2="482" stroke="#2563a6" stroke-width="3"/>
<text x="121" y="487" font-family="Arial" font-size="13" fill="#334155">Revenue</text>
<line x1="280" x2="304" y1="482" y2="482" stroke="#b96c24" stroke-width="3"/>
<text x="311" y="487" font-family="Arial" font-size="13" fill="#334155">FCFF</text>
</svg>